<svg width="12" height="13" viewBox="0 0 12 13" fill="none" xmlns="http://www.w3.org/2000/svg">
<path d="M10.5714 0.5H1.42857C0.64 0.5 0 1.14 0 1.92857V11.0714C0 11.86 0.64 12.5 1.42857 12.5H10.5714C11.36 12.5 12 11.86 12 11.0714V1.92857C12 1.14 11.36 0.5 10.5714 0.5ZM9.42857 4.78571H8.85714C8.24571 4.78571 8 4.92857 8 5.35714V6.21429H9.42857L9.14286 7.64286H8V11.9286H6.57143V7.64286H5.42857V6.21429H6.57143V5.35714C6.57143 4.21429 7.14286 3.35714 8.28572 3.35714C9.11429 3.35714 9.42857 3.64286 9.42857 3.64286V4.78571Z" fill="white"/>
</svg>
