<svg width="12" height="13" viewBox="0 0 12 13" fill="none" xmlns="http://www.w3.org/2000/svg">
<path d="M3.54545 0.5C1.59 0.5 0 2.09 0 4.04545V8.95455C0 10.91 1.59 12.5 3.54545 12.5H8.45455C10.41 12.5 12 10.91 12 8.95455V4.04545C12 2.09 10.41 0.5 8.45455 0.5H3.54545ZM9.27273 2.68182C9.57273 2.68182 9.81818 2.92727 9.81818 3.22727C9.81818 3.52727 9.57273 3.77273 9.27273 3.77273C8.97273 3.77273 8.72727 3.52727 8.72727 3.22727C8.72727 2.92727 8.97273 2.68182 9.27273 2.68182ZM6 3.5C7.65545 3.5 9 4.84455 9 6.5C9 8.15545 7.65545 9.5 6 9.5C4.34455 9.5 3 8.15545 3 6.5C3 4.84455 4.34455 3.5 6 3.5ZM6 4.04545C4.64727 4.04545 3.54545 5.14727 3.54545 6.5C3.54545 7.85273 4.64727 8.95455 6 8.95455C7.35273 8.95455 8.45455 7.85273 8.45455 6.5C8.45455 5.14727 7.35273 4.04545 6 4.04545Z" fill="white"/>
</svg>
