<svg width="12" height="11" viewBox="0 0 12 11" fill="none" xmlns="http://www.w3.org/2000/svg">
<path d="M12 1.77822C11.5576 1.97462 11.0835 2.10649 10.585 2.16635C11.0938 1.86146 11.4847 1.37888 11.668 0.804644C11.1929 1.08615 10.6645 1.29097 10.1043 1.40132C9.65537 0.922485 9.01567 0.624146 8.30769 0.624146C6.94786 0.624146 5.84522 1.72585 5.84522 3.08568C5.84522 3.27834 5.86766 3.46632 5.90975 3.64682C3.86346 3.54395 2.05003 2.56382 0.835164 1.07399C0.622866 1.43874 0.502222 1.86146 0.502222 2.31224C0.502222 3.16611 0.936171 3.91991 1.59738 4.36228C1.19336 4.34919 0.813655 4.23789 0.481646 4.05365C0.481646 4.06394 0.481646 4.07423 0.481646 4.08452C0.481646 5.27788 1.33084 6.27203 2.45593 6.49929C2.25018 6.55541 2.03226 6.58534 1.80781 6.58534C1.64882 6.58534 1.49451 6.57037 1.34393 6.54044C1.65817 7.51777 2.56722 8.23135 3.64367 8.25099C2.80196 8.91127 1.74047 9.30406 0.586393 9.30406C0.387188 9.30406 0.191723 9.29284 0 9.26946C1.08861 9.96902 2.38298 10.3758 3.77367 10.3758C8.30208 10.3758 10.7786 6.62462 10.7786 3.37187C10.7786 3.26525 10.7758 3.1577 10.772 3.05295C11.2527 2.70598 11.6699 2.27203 12 1.77822Z" fill="white"/>
</svg>
