<svg width="12" height="9" viewBox="0 0 12 9" fill="none" xmlns="http://www.w3.org/2000/svg">
<path d="M11.665 1.57668C11.5541 0.964388 11.0256 0.518494 10.4122 0.379288C9.49429 0.184616 7.79554 0.0454102 5.95759 0.0454102C4.12072 0.0454102 2.39478 0.184616 1.4758 0.379288C0.863512 0.518494 0.333877 0.936112 0.222947 1.57668C0.110931 2.27271 0 3.24715 0 4.50001C0 5.75286 0.110931 6.7273 0.250137 7.42333C0.362153 8.03562 0.890702 8.48152 1.50299 8.62072C2.47743 8.8154 4.14791 8.9546 5.98586 8.9546C7.82382 8.9546 9.49429 8.8154 10.4687 8.62072C11.081 8.48152 11.6096 8.0639 11.7216 7.42333C11.8325 6.7273 11.9717 5.72459 12 4.50001C11.9434 3.24715 11.8042 2.27271 11.665 1.57668ZM4.4546 6.44889V2.55112L7.85101 4.50001L4.4546 6.44889Z" fill="white"/>
</svg>
