<?xml version="1.0" standalone="no"?>
<!DOCTYPE svg PUBLIC "-//W3C//DTD SVG 20010904//EN"
 "http://www.w3.org/TR/2001/REC-SVG-20010904/DTD/svg10.dtd">
<svg version="1.0" xmlns="http://www.w3.org/2000/svg"
 width="840.000000pt" height="640.000000pt" viewBox="0 0 840.000000 640.000000"
 preserveAspectRatio="xMidYMid meet">

<g transform="translate(0.000000,640.000000) scale(0.100000,-0.100000)"
fill="#386BBE" stroke="none">
<path d="M4699 6357 c-6 -23 -23 -87 -39 -142 -20 -71 -24 -102 -16 -106 6 -4
47 -17 91 -29 308 -85 706 -294 985 -517 126 -100 340 -313 446 -443 194 -240
373 -552 473 -822 25 -66 48 -115 55 -113 46 14 272 88 277 91 8 4 -51 168
-104 289 -354 822 -1080 1486 -1927 1763 -69 23 -149 48 -177 56 l-53 15 -11
-42z"/>
<path d="M4516 5654 c-20 -75 -36 -137 -34 -138 2 -1 39 -12 83 -25 666 -190
1244 -728 1495 -1391 21 -58 43 -104 47 -104 4 1 67 21 140 44 l132 43 -29 78
c-231 624 -666 1124 -1241 1423 -170 89 -476 206 -537 206 -15 0 -25 -26 -56
-136z"/>
<path d="M3835 5160 c-813 -54 -1477 -625 -1645 -1416 -26 -124 -38 -378 -20
-443 40 -148 244 -174 308 -39 11 23 28 84 37 133 69 377 91 459 165 605 190
379 552 666 970 770 124 31 362 38 501 15 555 -92 1038 -533 1175 -1071 64
-252 54 -499 -28 -732 -61 -175 -153 -329 -389 -647 -225 -303 -318 -461 -378
-642 -52 -152 -61 -236 -61 -539 0 -161 -5 -295 -11 -326 -30 -144 -170 -316
-311 -383 -59 -28 -95 -38 -169 -46 -171 -17 -245 -52 -269 -125 -23 -70 2
-147 69 -207 51 -46 106 -62 203 -60 396 7 751 287 848 667 17 69 20 111 20
327 0 366 18 499 94 684 51 126 142 271 314 502 259 347 345 491 412 693 89
268 95 624 15 940 -84 331 -240 597 -494 843 -364 350 -854 530 -1356 497z"/>
<path d="M3723 4626 c-346 -66 -701 -332 -883 -661 -92 -166 -149 -374 -152
-553 -3 -150 32 -202 139 -202 93 0 112 30 147 230 29 168 59 262 117 369 59
109 128 198 223 288 103 97 215 165 348 211 94 32 115 36 244 40 86 3 169 0
210 -7 277 -49 570 -293 674 -562 17 -44 51 -159 75 -255 46 -181 72 -244 116
-276 61 -46 163 -28 195 34 25 47 29 165 10 273 -21 122 -57 229 -121 360
-179 370 -499 628 -867 700 -113 23 -381 29 -475 11z"/>
<path d="M3855 3397 c-80 -45 -112 -165 -62 -238 86 -127 268 -106 323 37 15
38 15 51 5 87 -36 121 -160 174 -266 114z"/>
<path d="M3293 2831 c-84 -39 -124 -146 -85 -233 48 -110 181 -142 269 -65
102 89 81 242 -42 298 -51 24 -89 23 -142 0z"/>
<path d="M2467 2384 l-108 -111 308 -306 308 -306 113 112 112 112 -137 138
c-76 76 -217 213 -313 305 l-175 167 -108 -111z"/>
<path d="M2153 1660 c-81 -19 -143 -92 -143 -171 0 -115 111 -206 216 -178 44
13 103 64 120 106 40 94 -13 211 -106 237 -45 13 -55 14 -87 6z"/>
<path d="M1515 1057 c-47 -26 -85 -92 -85 -147 0 -43 29 -107 61 -137 47 -43
121 -55 182 -29 38 16 94 76 103 112 11 44 -2 120 -26 154 -48 67 -159 90
-235 47z"/>
</g>
</svg>
